<svg width="260" height="91" viewBox="0 0 260 91" fill="none" xmlns="http://www.w3.org/2000/svg">
<path d="M0.96 12.2H37.824V21.416L37.184 21.288C37.184 16.0827 32.0213 13.48 21.696 13.48V42.536C21.696 48.8507 22.0587 52.6907 22.784 54.056C23.04 54.568 23.488 55.016 24.128 55.4C24.768 55.784 25.4507 56.0187 26.176 56.104C26.9013 56.1893 27.904 56.232 29.184 56.232L29.312 57H9.6L9.728 56.232C11.008 56.232 12.0107 56.2107 12.736 56.168C13.504 56.0827 14.1867 55.8267 14.784 55.4C15.424 54.9733 15.872 54.5253 16.128 54.056C16.4267 53.5867 16.6827 52.7547 16.896 51.56C17.1093 50.1093 17.216 47.1013 17.216 42.536V13.48C6.89067 13.48 1.728 16.0827 1.728 21.288L0.96 21.416V12.2ZM66.8495 56.232C68.4708 56.232 69.6015 56.104 70.2415 55.848C70.9242 55.592 71.2655 54.9307 71.2655 53.864C71.2655 52.7973 70.1348 49.1707 67.8735 42.984H48.3535C46.5188 48.4027 45.6015 51.816 45.6015 53.224C45.6015 54.5893 45.9428 55.4427 46.6255 55.784C47.3508 56.0827 48.6308 56.232 50.4655 56.232L50.5935 57H36.1935L36.3215 56.232C37.5588 56.232 38.5188 56.1253 39.2015 55.912C39.9268 55.6987 40.6948 55.144 41.5055 54.248C42.3588 53.3093 43.1695 51.9653 43.9375 50.216C44.7055 48.4667 45.6228 46.0133 46.6895 42.856L52.3855 26.408C54.3908 20.6053 55.3935 17.0853 55.3935 15.848C55.3935 14.6107 55.0948 13.8213 54.4975 13.48C53.9002 13.096 52.7482 12.904 51.0415 12.904L50.9135 12.2H61.4735L72.8015 42.856C74.7215 47.9333 76.0015 51.1547 76.6415 52.52C77.3242 53.8853 77.9642 54.76 78.5615 55.144C79.6282 55.8693 80.9722 56.232 82.5935 56.232L82.7215 57H66.7215L66.8495 56.232ZM57.8895 15.656L48.8655 41.448H67.3615L57.8895 15.656ZM126.323 26.6V57.32H124.339L94.195 19.24V42.408C94.195 46.6747 94.387 49.7467 94.771 51.624C95.155 53.5013 95.795 54.7387 96.691 55.336C97.587 55.9333 99.059 56.232 101.107 56.232L101.235 57H85.491L85.619 56.232C87.667 56.232 89.139 55.9333 90.035 55.336C90.931 54.7387 91.571 53.5013 91.955 51.624C92.3817 49.7467 92.595 46.6747 92.595 42.408V26.6C92.595 22.3333 92.3817 19.2827 91.955 17.448C91.571 15.5707 90.931 14.3547 90.035 13.8C89.1817 13.2027 87.7097 12.904 85.619 12.904L85.491 12.2H94.195L124.723 50.28V26.6C124.723 22.376 124.51 19.3253 124.083 17.448C123.699 15.5707 123.059 14.3547 122.163 13.8C121.267 13.2027 119.774 12.904 117.683 12.904L117.555 12.2H133.427L133.299 12.904C131.208 12.904 129.715 13.2027 128.819 13.8C127.923 14.3547 127.283 15.5707 126.899 17.448C126.515 19.3253 126.323 22.376 126.323 26.6Z" fill="black"/>
<path d="M157.488 67.2C161.728 67.2 163.848 68.816 163.848 72.048C163.848 73.472 163.344 74.64 162.336 75.552C161.344 76.464 160.16 76.92 158.784 76.92C157.408 76.92 156.24 76.696 155.28 76.248V78.576C155.28 80.288 155.328 81.456 155.424 82.08C155.536 82.704 155.688 83.096 155.88 83.256C156.248 83.56 156.832 83.712 157.632 83.712L157.68 84H151.2L151.248 83.712C152.048 83.712 152.632 83.56 153 83.256C153.4 82.92 153.6 81.36 153.6 78.576V72.624C153.6 70.912 153.544 69.744 153.432 69.12C153.336 68.496 153.192 68.104 153 67.944C152.632 67.64 152.048 67.488 151.248 67.488L151.2 67.2H157.488ZM155.28 67.752V75.648C156.112 76.096 157.088 76.32 158.208 76.32C159.344 76.32 160.256 75.968 160.944 75.264C161.632 74.544 161.976 73.472 161.976 72.048C161.976 70.272 161.4 69.088 160.248 68.496C159.304 68 158.168 67.752 156.84 67.752H155.28ZM174.46 76.248V78.672C174.46 80.448 174.516 81.616 174.628 82.176C174.74 82.72 175.012 82.992 175.444 82.992C175.716 82.992 176.076 82.88 176.524 82.656L176.644 82.896C176.516 82.992 176.348 83.112 176.14 83.256C175.932 83.384 175.508 83.56 174.868 83.784C174.228 84.008 173.612 84.12 173.02 84.12C172.86 83.448 172.78 82.376 172.78 80.904C172.428 81.896 171.964 82.704 171.388 83.328C170.828 83.936 170.044 84.24 169.036 84.24C168.028 84.24 167.228 83.976 166.636 83.448C166.06 82.904 165.772 82.168 165.772 81.24C165.772 78.664 168.108 77.368 172.78 77.352V76.488C172.78 75.336 172.612 74.456 172.276 73.848C171.94 73.24 171.316 72.936 170.404 72.936C169.892 72.936 169.476 73.064 169.156 73.32C168.836 73.576 168.62 73.856 168.508 74.16C168.236 74.992 167.828 75.408 167.284 75.408C166.756 75.408 166.492 75.112 166.492 74.52C166.492 73.912 166.892 73.408 167.692 73.008C168.492 72.608 169.46 72.408 170.596 72.408C171.732 72.408 172.66 72.736 173.38 73.392C174.1 74.032 174.46 74.984 174.46 76.248ZM167.596 81.336C167.596 81.96 167.748 82.48 168.052 82.896C168.356 83.296 168.836 83.496 169.492 83.496C170.164 83.496 170.772 83.176 171.316 82.536C171.86 81.88 172.228 81.16 172.42 80.376C172.628 79.576 172.748 78.752 172.78 77.904C171.004 77.92 169.692 78.248 168.844 78.888C168.012 79.528 167.596 80.344 167.596 81.336ZM182.195 72.648H185.147V73.176H182.195V82.32C182.195 82.656 182.275 82.928 182.435 83.136C182.595 83.328 182.803 83.424 183.059 83.424C183.635 83.424 184.315 83.256 185.099 82.92L185.147 83.184C184.027 83.888 183.035 84.24 182.171 84.24C181.611 84.24 181.195 84.104 180.923 83.832C180.651 83.56 180.515 83.088 180.515 82.416V73.176H179.075V72.648C179.939 72.648 180.539 72.408 180.875 71.928C181.227 71.432 181.491 70.704 181.667 69.744L182.195 69.696V72.648ZM189.307 69.528C189.035 69.256 188.899 68.936 188.899 68.568C188.899 68.2 189.035 67.88 189.307 67.608C189.579 67.336 189.899 67.2 190.267 67.2C190.635 67.2 190.955 67.336 191.227 67.608C191.499 67.88 191.635 68.2 191.635 68.568C191.635 68.936 191.499 69.256 191.227 69.528C190.955 69.8 190.635 69.936 190.267 69.936C189.899 69.936 189.579 69.8 189.307 69.528ZM191.179 72.408V80.04C191.179 81.72 191.275 82.752 191.467 83.136C191.675 83.52 192.251 83.712 193.195 83.712L193.243 84H187.387L187.435 83.712C188.395 83.712 188.979 83.52 189.187 83.136C189.395 82.736 189.499 81.688 189.499 79.992V78.312C189.499 76.456 189.443 75.232 189.331 74.64C189.235 74.032 189.091 73.64 188.899 73.464C188.515 73.112 187.923 72.936 187.123 72.936L187.075 72.672C188.467 72.496 189.835 72.408 191.179 72.408ZM196.421 80.424C196.421 81.464 196.701 82.248 197.261 82.776C197.821 83.288 198.485 83.544 199.253 83.544C200.037 83.544 200.669 83.368 201.149 83.016C201.629 82.664 201.869 82.192 201.869 81.6C201.869 80.992 201.661 80.496 201.245 80.112C200.845 79.728 200.357 79.416 199.781 79.176C199.205 78.936 198.621 78.688 198.029 78.432C197.453 78.176 196.957 77.8 196.541 77.304C196.141 76.808 195.941 76.144 195.941 75.312C195.941 74.48 196.309 73.792 197.045 73.248C197.797 72.688 198.661 72.408 199.637 72.408C201.029 72.408 202.117 72.632 202.901 73.08C202.901 73.816 202.805 74.84 202.613 76.152L202.325 76.08C202.325 75.024 202.085 74.256 201.605 73.776C201.125 73.296 200.541 73.056 199.853 73.056C199.181 73.056 198.637 73.232 198.221 73.584C197.821 73.936 197.621 74.416 197.621 75.024C197.621 75.616 197.821 76.096 198.221 76.464C198.637 76.816 199.133 77.112 199.709 77.352C200.285 77.592 200.861 77.848 201.437 78.12C202.029 78.376 202.525 78.752 202.925 79.248C203.341 79.728 203.549 80.32 203.549 81.024C203.549 82.048 203.149 82.84 202.349 83.4C201.549 83.96 200.493 84.24 199.181 84.24C197.885 84.24 196.789 83.896 195.893 83.208C195.893 82.408 195.973 81.464 196.133 80.376L196.421 80.424ZM207.008 80.424C207.008 81.464 207.288 82.248 207.848 82.776C208.408 83.288 209.072 83.544 209.84 83.544C210.624 83.544 211.256 83.368 211.736 83.016C212.216 82.664 212.456 82.192 212.456 81.6C212.456 80.992 212.248 80.496 211.832 80.112C211.432 79.728 210.944 79.416 210.368 79.176C209.792 78.936 209.208 78.688 208.616 78.432C208.04 78.176 207.544 77.8 207.128 77.304C206.728 76.808 206.528 76.144 206.528 75.312C206.528 74.48 206.896 73.792 207.632 73.248C208.384 72.688 209.248 72.408 210.224 72.408C211.616 72.408 212.704 72.632 213.488 73.08C213.488 73.816 213.392 74.84 213.2 76.152L212.912 76.08C212.912 75.024 212.672 74.256 212.192 73.776C211.712 73.296 211.128 73.056 210.44 73.056C209.768 73.056 209.224 73.232 208.808 73.584C208.408 73.936 208.208 74.416 208.208 75.024C208.208 75.616 208.408 76.096 208.808 76.464C209.224 76.816 209.72 77.112 210.296 77.352C210.872 77.592 211.448 77.848 212.024 78.12C212.616 78.376 213.112 78.752 213.512 79.248C213.928 79.728 214.136 80.32 214.136 81.024C214.136 82.048 213.736 82.84 212.936 83.4C212.136 83.96 211.08 84.24 209.768 84.24C208.472 84.24 207.376 83.896 206.48 83.208C206.48 82.408 206.56 81.464 206.72 80.376L207.008 80.424ZM226.523 77.928H218.651V78.336C218.651 80.032 219.011 81.328 219.731 82.224C220.451 83.104 221.347 83.544 222.419 83.544C224.019 83.544 225.171 82.904 225.875 81.624L226.235 81.816C225.403 83.432 224.011 84.24 222.059 84.24C220.619 84.24 219.387 83.72 218.363 82.68C217.339 81.64 216.827 80.24 216.827 78.48C216.827 76.704 217.275 75.248 218.171 74.112C219.083 72.976 220.291 72.408 221.795 72.408C223.315 72.408 224.483 72.928 225.299 73.968C226.115 74.992 226.523 76.312 226.523 77.928ZM221.867 72.888C220.939 72.888 220.203 73.288 219.659 74.088C219.131 74.872 218.811 75.92 218.699 77.232H224.675C224.563 74.336 223.627 72.888 221.867 72.888ZM236.798 72.288C237.198 72.288 237.55 72.376 237.854 72.552C238.158 72.728 238.31 72.968 238.31 73.272C238.31 73.576 238.214 73.816 238.022 73.992C237.83 74.168 237.614 74.256 237.374 74.256C237.134 74.256 236.83 74.152 236.462 73.944C236.11 73.736 235.734 73.632 235.334 73.632C234.71 73.632 234.198 74.208 233.798 75.36C233.414 76.512 233.222 77.848 233.222 79.368C233.222 81.416 233.326 82.656 233.534 83.088C233.598 83.232 233.718 83.368 233.894 83.496C234.07 83.608 234.254 83.672 234.446 83.688C234.638 83.704 234.91 83.712 235.262 83.712L235.31 84H229.478L229.526 83.712C230.038 83.712 230.406 83.688 230.63 83.64C230.87 83.576 231.07 83.376 231.23 83.04C231.39 82.704 231.478 82.288 231.494 81.792C231.526 81.28 231.542 80.472 231.542 79.368V77.976C231.542 75.752 231.478 74.488 231.35 74.184C231.238 73.88 231.134 73.64 231.038 73.464C230.942 73.288 230.798 73.168 230.606 73.104C230.254 73.008 229.79 72.96 229.214 72.96L229.166 72.696C230.526 72.504 231.878 72.408 233.222 72.408V75.936C233.398 74.8 233.79 73.912 234.398 73.272C235.022 72.616 235.822 72.288 236.798 72.288ZM241.985 69.528C241.713 69.256 241.577 68.936 241.577 68.568C241.577 68.2 241.713 67.88 241.985 67.608C242.257 67.336 242.577 67.2 242.945 67.2C243.313 67.2 243.633 67.336 243.905 67.608C244.177 67.88 244.313 68.2 244.313 68.568C244.313 68.936 244.177 69.256 243.905 69.528C243.633 69.8 243.313 69.936 242.945 69.936C242.577 69.936 242.257 69.8 241.985 69.528ZM243.857 72.408V80.04C243.857 81.72 243.953 82.752 244.145 83.136C244.353 83.52 244.929 83.712 245.873 83.712L245.921 84H240.065L240.113 83.712C241.073 83.712 241.657 83.52 241.865 83.136C242.073 82.736 242.177 81.688 242.177 79.992V78.312C242.177 76.456 242.121 75.232 242.009 74.64C241.913 74.032 241.769 73.64 241.577 73.464C241.193 73.112 240.601 72.936 239.801 72.936L239.753 72.672C241.145 72.496 242.513 72.408 243.857 72.408ZM258.027 77.928H250.155V78.336C250.155 80.032 250.515 81.328 251.235 82.224C251.955 83.104 252.851 83.544 253.923 83.544C255.523 83.544 256.675 82.904 257.379 81.624L257.739 81.816C256.907 83.432 255.515 84.24 253.563 84.24C252.123 84.24 250.891 83.72 249.867 82.68C248.843 81.64 248.331 80.24 248.331 78.48C248.331 76.704 248.779 75.248 249.675 74.112C250.587 72.976 251.795 72.408 253.299 72.408C254.819 72.408 255.987 72.928 256.803 73.968C257.619 74.992 258.027 76.312 258.027 77.928ZM253.371 72.888C252.443 72.888 251.707 73.288 251.163 74.088C250.635 74.872 250.315 75.92 250.203 77.232H256.179C256.067 74.336 255.131 72.888 253.371 72.888Z" fill="black"/>
<line x1="-8.74228e-08" y1="77" x2="132" y2="77" stroke="black" stroke-width="2"/>
</svg>
